# xmcd
#
# Track frame offsets: 
#        150
#        21141
#        42188
#        67519
#        88715
#        111870
#        133052
#        153420
#        178787
#        202459
#
# Disc length: 3051 seconds
#
# Revision: 2
# Processed by: cddbd v1.5.2PL0 Copyright (c) Steve Scherf et al.
# Submitted via: ExactAudioCopy v0.99pb5
#
DISCID=860be90a
DTITLE=Juega Billar - 8+ y mas...!
DYEAR=2006
DGENRE=Salsa
TTITLE0=Mi ritmo llegò
TTITLE1=Siete Mujeres
TTITLE2=Pà Colombia
TTITLE3=La Maleta
TTITLE4=La Pelota
TTITLE5=Esa Prieta
TTITLE6=Plantacion Adentro
TTITLE7=Vamos A Reir Un Poco
TTITLE8=Toro Mata
TTITLE9=Para Ray
EXTD=
EXTT0=
EXTT1=
EXTT2=
EXTT3=
EXTT4=
EXTT5=
EXTT6=
EXTT7=
EXTT8=
EXTT9=
PLAYORDER=
